# MagicaVoxel @ Ephtracy

# group
o 

# material
mtllib Basic Zombie2-2.mtl
usemtl palette

# normals
vn -1 0 0
vn 1 0 0
vn 0 0 1
vn 0 0 -1
vn 0 -1 0
vn 0 1 0

# texcoords
vt 0.478516 0.5
vt 0.685547 0.5

# verts
v 0.2 1.1 -0.5
v 0.2 1.1 -0.6
v 0.2 1.2 -0.4
v 0.2 1.2 -0.5
v 0.2 1.4 -0.3
v 0.2 1.4 -0.4
v 0.2 1.8 -0.3
v 0.2 1.8 -0.6
v 0.3 1 -0.4
v 0.3 1 -0.6
v 0.3 1 -0.7
v 0.3 1.1 -0.3
v 0.3 1.1 -0.4
v 0.3 1.1 -0.5
v 0.3 1.1 -0.6
v 0.3 1.2 -0.4
v 0.3 1.2 -0.5
v 0.3 1.3 -0.2
v 0.3 1.3 -0.3
v 0.3 1.4 -0.3
v 0.3 1.4 -0.4
v 0.3 1.8 -0.2
v 0.3 1.8 -0.3
v 0.3 1.8 -0.6
v 0.3 1.8 -0.7
v 0.4 1.2 -0.2
v 0.4 1.2 -0.3
v 0.4 1.3 -0.2
v 0.4 1.3 -0.3
v 0.5 1 -0.4
v 0.5 1 -0.6
v 0.5 1 -0.7
v 0.5 1.1 -0.3
v 0.5 1.1 -0.4
v 0.5 1.1 -0.5
v 0.5 1.1 -0.6
v 0.5 1.2 -0.2
v 0.5 1.2 -0.3
v 0.5 1.2 -0.5
v 0.5 1.8 -0.2
v 0.5 1.8 -0.3
v 0.5 1.8 -0.6
v 0.5 1.8 -0.7
v 0.6 1.1 -0.5
v 0.6 1.1 -0.6
v 0.6 1.2 -0.3
v 0.6 1.2 -0.5
v 0.6 1.8 -0.3
v 0.6 1.8 -0.6
v 0.3 1.3 -0.2
v 0.3 1.8 -0.2
v 0.4 1.2 -0.2
v 0.4 1.3 -0.2
v 0.5 1.2 -0.2
v 0.5 1.8 -0.2
v 0.2 1.4 -0.3
v 0.2 1.8 -0.3
v 0.3 1.1 -0.3
v 0.3 1.3 -0.3
v 0.3 1.4 -0.3
v 0.3 1.8 -0.3
v 0.4 1.2 -0.3
v 0.4 1.3 -0.3
v 0.5 1.1 -0.3
v 0.5 1.2 -0.3
v 0.5 1.8 -0.3
v 0.6 1.2 -0.3
v 0.6 1.8 -0.3
v 0.2 1.2 -0.4
v 0.2 1.4 -0.4
v 0.3 1 -0.4
v 0.3 1.1 -0.4
v 0.3 1.2 -0.4
v 0.3 1.4 -0.4
v 0.5 1 -0.4
v 0.5 1.1 -0.4
v 0.2 1.1 -0.5
v 0.2 1.2 -0.5
v 0.3 1.1 -0.5
v 0.3 1.2 -0.5
v 0.5 1.1 -0.5
v 0.5 1.2 -0.5
v 0.6 1.1 -0.5
v 0.6 1.2 -0.5
v 0.2 1.1 -0.6
v 0.2 1.8 -0.6
v 0.3 1.1 -0.6
v 0.3 1.8 -0.6
v 0.5 1.1 -0.6
v 0.5 1.8 -0.6
v 0.6 1.1 -0.6
v 0.6 1.8 -0.6
v 0.3 1 -0.7
v 0.3 1.8 -0.7
v 0.5 1 -0.7
v 0.5 1.8 -0.7
v 0.3 1 -0.4
v 0.5 1 -0.4
v 0.3 1 -0.6
v 0.5 1 -0.6
v 0.3 1 -0.7
v 0.5 1 -0.7
v 0.3 1.1 -0.3
v 0.5 1.1 -0.3
v 0.3 1.1 -0.4
v 0.5 1.1 -0.4
v 0.2 1.1 -0.5
v 0.3 1.1 -0.5
v 0.5 1.1 -0.5
v 0.6 1.1 -0.5
v 0.2 1.1 -0.6
v 0.3 1.1 -0.6
v 0.5 1.1 -0.6
v 0.6 1.1 -0.6
v 0.4 1.2 -0.2
v 0.5 1.2 -0.2
v 0.4 1.2 -0.3
v 0.5 1.2 -0.3
v 0.6 1.2 -0.3
v 0.2 1.2 -0.4
v 0.3 1.2 -0.4
v 0.2 1.2 -0.5
v 0.3 1.2 -0.5
v 0.5 1.2 -0.5
v 0.6 1.2 -0.5
v 0.3 1.3 -0.2
v 0.4 1.3 -0.2
v 0.3 1.3 -0.3
v 0.4 1.3 -0.3
v 0.2 1.4 -0.3
v 0.3 1.4 -0.3
v 0.2 1.4 -0.4
v 0.3 1.4 -0.4
v 0.3 1.8 -0.2
v 0.5 1.8 -0.2
v 0.2 1.8 -0.3
v 0.3 1.8 -0.3
v 0.5 1.8 -0.3
v 0.6 1.8 -0.3
v 0.2 1.8 -0.6
v 0.3 1.8 -0.6
v 0.5 1.8 -0.6
v 0.6 1.8 -0.6
v 0.3 1.8 -0.7
v 0.5 1.8 -0.7

# faces
f 4/2/1 2/2/1 1/2/1
f 6/2/1 4/2/1 3/2/1
f 7/2/1 6/2/1 5/2/1
f 8/2/1 2/2/1 4/2/1
f 8/2/1 6/2/1 7/2/1
f 8/2/1 4/2/1 6/2/1
f 13/1/1 10/1/1 9/1/1
f 14/1/1 10/1/1 13/1/1
f 15/2/1 11/2/1 10/2/1
f 15/1/1 10/1/1 14/1/1
f 16/1/1 14/1/1 13/1/1
f 16/1/1 13/1/1 12/1/1
f 17/1/1 14/1/1 16/1/1
f 19/1/1 16/1/1 12/1/1
f 20/1/1 16/1/1 19/1/1
f 20/2/1 19/2/1 18/2/1
f 21/1/1 16/1/1 20/1/1
f 22/2/1 20/2/1 18/2/1
f 23/2/1 20/2/1 22/2/1
f 24/2/1 11/2/1 15/2/1
f 25/2/1 11/2/1 24/2/1
f 28/2/1 27/2/1 26/2/1
f 29/2/1 27/2/1 28/2/1
f 30/1/2 31/1/2 34/1/2
f 34/1/2 31/1/2 35/1/2
f 31/2/2 32/2/2 36/2/2
f 35/1/2 31/1/2 36/1/2
f 34/1/2 35/1/2 38/1/2
f 33/1/2 34/1/2 38/1/2
f 38/1/2 35/1/2 39/1/2
f 37/2/2 38/2/2 40/2/2
f 40/2/2 38/2/2 41/2/2
f 36/2/2 32/2/2 42/2/2
f 42/2/2 32/2/2 43/2/2
f 44/2/2 45/2/2 47/2/2
f 46/2/2 47/2/2 48/2/2
f 47/2/2 45/2/2 49/2/2
f 48/2/2 47/2/2 49/2/2
f 53/2/3 51/2/3 50/2/3
f 54/2/3 53/2/3 52/2/3
f 55/2/3 51/2/3 53/2/3
f 55/2/3 53/2/3 54/2/3
f 60/2/3 57/2/3 56/2/3
f 61/2/3 57/2/3 60/2/3
f 62/1/3 59/1/3 58/1/3
f 63/1/3 59/1/3 62/1/3
f 64/1/3 62/1/3 58/1/3
f 65/1/3 62/1/3 64/1/3
f 67/2/3 66/2/3 65/2/3
f 68/2/3 66/2/3 67/2/3
f 73/2/3 70/2/3 69/2/3
f 74/2/3 70/2/3 73/2/3
f 75/1/3 72/1/3 71/1/3
f 76/1/3 72/1/3 75/1/3
f 79/2/3 78/2/3 77/2/3
f 80/2/3 78/2/3 79/2/3
f 83/2/3 82/2/3 81/2/3
f 84/2/3 82/2/3 83/2/3
f 85/2/4 86/2/4 87/2/4
f 87/2/4 86/2/4 88/2/4
f 89/2/4 90/2/4 91/2/4
f 91/2/4 90/2/4 92/2/4
f 93/2/4 94/2/4 95/2/4
f 95/2/4 94/2/4 96/2/4
f 99/1/5 98/1/5 97/1/5
f 100/1/5 98/1/5 99/1/5
f 101/2/5 100/2/5 99/2/5
f 102/2/5 100/2/5 101/2/5
f 105/1/5 104/1/5 103/1/5
f 106/1/5 104/1/5 105/1/5
f 111/2/5 108/2/5 107/2/5
f 112/2/5 108/2/5 111/2/5
f 113/2/5 110/2/5 109/2/5
f 114/2/5 110/2/5 113/2/5
f 117/2/5 116/2/5 115/2/5
f 118/2/5 116/2/5 117/2/5
f 122/2/5 121/2/5 120/2/5
f 123/2/5 121/2/5 122/2/5
f 124/2/5 119/2/5 118/2/5
f 125/2/5 119/2/5 124/2/5
f 128/2/5 127/2/5 126/2/5
f 129/2/5 127/2/5 128/2/5
f 132/2/5 131/2/5 130/2/5
f 133/2/5 131/2/5 132/2/5
f 134/2/6 135/2/6 137/2/6
f 137/2/6 135/2/6 138/2/6
f 136/2/6 137/2/6 140/2/6
f 137/1/6 138/1/6 141/1/6
f 140/2/6 137/2/6 141/2/6
f 138/2/6 139/2/6 142/2/6
f 141/1/6 138/1/6 142/1/6
f 142/2/6 139/2/6 143/2/6
f 141/2/6 142/2/6 144/2/6
f 144/2/6 142/2/6 145/2/6
