# MagicaVoxel @ Ephtracy

# group
o 

# material
mtllib Basic Zombie2-3.mtl
usemtl palette

# normals
vn -1 0 0
vn 1 0 0
vn 0 0 1
vn 0 0 -1
vn 0 -1 0
vn 0 1 0

# texcoords
vt 0.478516 0.5
vt 0.509766 0.5
vt 0.513672 0.5
vt 0.537109 0.5
vt 0.685547 0.5

# verts
v -0.7 0 0.2
v -0.7 0 -0.7
v -0.7 0.1 0.2
v -0.7 0.1 -0.7
v -0.7 0.2 0.2
v -0.7 0.2 -0.1
v -0.7 0.2 -0.2
v -0.7 0.2 -0.7
v -0.7 0.3 0.2
v -0.7 0.3 -0.1
v -0.7 0.3 -0.2
v -0.7 0.5 -0.2
v -0.7 0.5 -0.3
v -0.7 0.5 -0.5
v -0.7 0.5 -0.7
v -0.7 0.8 -0.4
v -0.7 0.8 -0.5
v -0.7 0.9 -0.3
v -0.7 0.9 -0.4
v -0.6 0.5 -0.2
v -0.6 0.5 -0.3
v -0.6 0.5 -0.5
v -0.6 0.5 -0.6
v -0.6 0.5 -0.7
v -0.6 0.8 -0.4
v -0.6 0.8 -0.5
v -0.6 0.8 -0.6
v -0.6 0.8 -0.7
v -0.6 0.9 -0.2
v -0.6 0.9 -0.3
v -0.6 0.9 -0.4
v -0.6 0.9 -0.6
v -0.6 0.9 -0.7
v -0.6 1 -0.3
v -0.6 1 -0.6
v -0.6 1 -0.7
v -0.5 0.8 -0.6
v -0.5 0.8 -0.7
v -0.5 0.9 -0.2
v -0.5 0.9 -0.3
v -0.5 0.9 -0.6
v -0.5 0.9 -0.7
v -0.5 1 -0.2
v -0.5 1 -0.3
v -0.5 0.7 -0.2
v -0.5 0.7 -0.3
v -0.5 0.8 -0.2
v -0.5 0.8 -0.3
v -0.4 0.5 -0.2
v -0.4 0.5 -0.3
v -0.4 0.5 -0.5
v -0.4 0.5 -0.6
v -0.4 0.5 -0.7
v -0.4 0.6 -0.3
v -0.4 0.6 -0.5
v -0.4 0.7 -0.2
v -0.4 0.7 -0.3
v -0.4 0.7 -0.4
v -0.4 0.7 -0.6
v -0.4 0.8 -0.2
v -0.4 0.8 -0.3
v -0.4 0.8 -0.4
v -0.4 1 -0.2
v -0.4 1 -0.3
v -0.4 1 -0.6
v -0.4 1 -0.7
v -0.3 0 0.2
v -0.3 0 -0.7
v -0.3 0.1 0.2
v -0.3 0.1 -0.7
v -0.3 0.2 0.2
v -0.3 0.2 -0.1
v -0.3 0.2 -0.2
v -0.3 0.2 -0.7
v -0.3 0.3 0.2
v -0.3 0.3 -0.1
v -0.3 0.3 -0.2
v -0.3 0.5 -0.2
v -0.3 0.5 -0.3
v -0.3 0.5 -0.5
v -0.3 0.5 -0.7
v -0.3 0.6 -0.3
v -0.3 0.6 -0.5
v -0.3 0.7 -0.4
v -0.3 0.7 -0.6
v -0.3 0.8 -0.3
v -0.3 0.8 -0.4
v -0.3 1 -0.3
v -0.3 1 -0.6
v -0.7 0 0.2
v -0.7 0.1 0.2
v -0.7 0.2 0.2
v -0.7 0.3 0.2
v -0.3 0 0.2
v -0.3 0.1 0.2
v -0.3 0.2 0.2
v -0.3 0.3 0.2
v -0.7 0.3 -0.2
v -0.7 0.5 -0.2
v -0.6 0.5 -0.2
v -0.6 0.9 -0.2
v -0.5 0.7 -0.2
v -0.5 0.8 -0.2
v -0.5 0.9 -0.2
v -0.5 1 -0.2
v -0.4 0.5 -0.2
v -0.4 0.7 -0.2
v -0.4 0.8 -0.2
v -0.4 1 -0.2
v -0.3 0.3 -0.2
v -0.3 0.5 -0.2
v -0.7 0.5 -0.3
v -0.7 0.9 -0.3
v -0.6 0.5 -0.3
v -0.6 0.9 -0.3
v -0.6 1 -0.3
v -0.5 0.7 -0.3
v -0.5 0.8 -0.3
v -0.5 0.9 -0.3
v -0.5 1 -0.3
v -0.4 0.5 -0.3
v -0.4 0.6 -0.3
v -0.4 0.7 -0.3
v -0.4 0.8 -0.3
v -0.4 1 -0.3
v -0.3 0.5 -0.3
v -0.3 0.6 -0.3
v -0.3 0.8 -0.3
v -0.3 1 -0.3
v -0.4 0.7 -0.4
v -0.4 0.8 -0.4
v -0.3 0.7 -0.4
v -0.3 0.8 -0.4
v -0.7 0.8 -0.4
v -0.7 0.9 -0.4
v -0.6 0.8 -0.4
v -0.6 0.9 -0.4
v -0.7 0.5 -0.5
v -0.7 0.8 -0.5
v -0.6 0.5 -0.5
v -0.6 0.8 -0.5
v -0.4 0.5 -0.5
v -0.4 0.6 -0.5
v -0.3 0.5 -0.5
v -0.3 0.6 -0.5
v -0.6 0.8 -0.6
v -0.6 0.9 -0.6
v -0.5 0.8 -0.6
v -0.5 0.9 -0.6
v -0.4 0.7 -0.6
v -0.4 1 -0.6
v -0.3 0.7 -0.6
v -0.3 1 -0.6
v -0.7 0 -0.7
v -0.7 0.1 -0.7
v -0.7 0.2 -0.7
v -0.7 0.5 -0.7
v -0.6 0.5 -0.7
v -0.6 0.8 -0.7
v -0.6 0.9 -0.7
v -0.6 1 -0.7
v -0.5 0.8 -0.7
v -0.5 0.9 -0.7
v -0.4 0.5 -0.7
v -0.4 1 -0.7
v -0.3 0 -0.7
v -0.3 0.1 -0.7
v -0.3 0.2 -0.7
v -0.3 0.5 -0.7
v -0.7 0 0.2
v -0.3 0 0.2
v -0.7 0 -0.7
v -0.3 0 -0.7
v -0.4 0.7 -0.4
v -0.3 0.7 -0.4
v -0.4 0.7 -0.6
v -0.3 0.7 -0.6
v -0.5 0.8 -0.2
v -0.4 0.8 -0.2
v -0.5 0.8 -0.3
v -0.4 0.8 -0.3
v -0.3 0.8 -0.3
v -0.4 0.8 -0.4
v -0.3 0.8 -0.4
v -0.6 0.9 -0.6
v -0.5 0.9 -0.6
v -0.6 0.9 -0.7
v -0.5 0.9 -0.7
v -0.7 0.3 0.2
v -0.3 0.3 0.2
v -0.7 0.3 -0.1
v -0.3 0.3 -0.1
v -0.7 0.3 -0.2
v -0.3 0.3 -0.2
v -0.7 0.5 -0.2
v -0.6 0.5 -0.2
v -0.4 0.5 -0.2
v -0.3 0.5 -0.2
v -0.7 0.5 -0.3
v -0.6 0.5 -0.3
v -0.4 0.5 -0.3
v -0.3 0.5 -0.3
v -0.7 0.5 -0.5
v -0.6 0.5 -0.5
v -0.4 0.5 -0.5
v -0.3 0.5 -0.5
v -0.6 0.5 -0.6
v -0.4 0.5 -0.6
v -0.7 0.5 -0.7
v -0.6 0.5 -0.7
v -0.4 0.5 -0.7
v -0.3 0.5 -0.7
v -0.4 0.6 -0.3
v -0.3 0.6 -0.3
v -0.4 0.6 -0.5
v -0.3 0.6 -0.5
v -0.5 0.7 -0.2
v -0.4 0.7 -0.2
v -0.5 0.7 -0.3
v -0.4 0.7 -0.3
v -0.7 0.8 -0.4
v -0.6 0.8 -0.4
v -0.7 0.8 -0.5
v -0.6 0.8 -0.5
v -0.6 0.8 -0.6
v -0.5 0.8 -0.6
v -0.6 0.8 -0.7
v -0.5 0.8 -0.7
v -0.6 0.9 -0.2
v -0.5 0.9 -0.2
v -0.7 0.9 -0.3
v -0.6 0.9 -0.3
v -0.5 0.9 -0.3
v -0.7 0.9 -0.4
v -0.6 0.9 -0.4
v -0.5 1 -0.2
v -0.4 1 -0.2
v -0.6 1 -0.3
v -0.5 1 -0.3
v -0.4 1 -0.3
v -0.3 1 -0.3
v -0.6 1 -0.6
v -0.4 1 -0.6
v -0.3 1 -0.6
v -0.6 1 -0.7
v -0.4 1 -0.7

# faces
f 3/3/1 2/3/1 1/3/1
f 4/3/1 2/3/1 3/3/1
f 5/2/1 4/2/1 3/2/1
f 6/2/1 4/2/1 5/2/1
f 7/2/1 4/2/1 6/2/1
f 8/2/1 4/2/1 7/2/1
f 9/4/1 6/4/1 5/4/1
f 10/2/1 7/2/1 6/2/1
f 10/4/1 6/4/1 9/4/1
f 11/5/1 8/5/1 7/5/1
f 11/2/1 7/2/1 10/2/1
f 12/5/1 8/5/1 11/5/1
f 13/5/1 8/5/1 12/5/1
f 14/5/1 8/5/1 13/5/1
f 15/5/1 8/5/1 14/5/1
f 16/5/1 14/5/1 13/5/1
f 17/5/1 14/5/1 16/5/1
f 18/5/1 16/5/1 13/5/1
f 19/5/1 16/5/1 18/5/1
f 26/1/1 23/1/1 22/1/1
f 27/5/1 24/5/1 23/5/1
f 27/1/1 23/1/1 26/1/1
f 28/5/1 24/5/1 27/5/1
f 29/5/1 21/5/1 20/5/1
f 30/5/1 21/5/1 29/5/1
f 31/1/1 26/1/1 25/1/1
f 31/1/1 27/1/1 26/1/1
f 32/1/1 27/1/1 31/1/1
f 34/1/1 31/1/1 30/1/1
f 34/1/1 32/1/1 31/1/1
f 35/5/1 33/5/1 32/5/1
f 35/1/1 32/1/1 34/1/1
f 36/5/1 33/5/1 35/5/1
f 41/5/1 38/5/1 37/5/1
f 42/5/1 38/5/1 41/5/1
f 43/5/1 40/5/1 39/5/1
f 44/5/1 40/5/1 43/5/1
f 45/5/2 46/5/2 47/5/2
f 47/5/2 46/5/2 48/5/2
f 49/5/2 50/5/2 54/5/2
f 51/1/2 52/1/2 55/1/2
f 49/5/2 54/5/2 56/5/2
f 54/1/2 55/1/2 57/1/2
f 56/5/2 54/5/2 57/5/2
f 57/1/2 55/1/2 58/1/2
f 52/5/2 53/5/2 59/5/2
f 58/1/2 55/1/2 59/1/2
f 55/1/2 52/1/2 59/1/2
f 57/1/2 58/1/2 61/1/2
f 61/1/2 58/1/2 62/1/2
f 60/5/2 61/5/2 63/5/2
f 63/5/2 61/5/2 64/5/2
f 59/5/2 53/5/2 65/5/2
f 65/5/2 53/5/2 66/5/2
f 67/3/2 68/3/2 69/3/2
f 69/3/2 68/3/2 70/3/2
f 69/2/2 70/2/2 71/2/2
f 71/2/2 70/2/2 72/2/2
f 72/2/2 70/2/2 73/2/2
f 73/2/2 70/2/2 74/2/2
f 71/4/2 72/4/2 75/4/2
f 72/2/2 73/2/2 76/2/2
f 75/4/2 72/4/2 76/4/2
f 73/5/2 74/5/2 77/5/2
f 76/2/2 73/2/2 77/2/2
f 77/5/2 74/5/2 78/5/2
f 78/5/2 74/5/2 79/5/2
f 79/5/2 74/5/2 80/5/2
f 80/5/2 74/5/2 81/5/2
f 79/5/2 80/5/2 82/5/2
f 82/5/2 80/5/2 83/5/2
f 84/5/2 85/5/2 87/5/2
f 86/5/2 87/5/2 88/5/2
f 87/5/2 85/5/2 89/5/2
f 88/5/2 87/5/2 89/5/2
f 94/3/3 91/3/3 90/3/3
f 95/2/3 92/2/3 91/2/3
f 95/3/3 91/3/3 94/3/3
f 96/4/3 93/4/3 92/4/3
f 96/2/3 92/2/3 95/2/3
f 97/4/3 93/4/3 96/4/3
f 100/5/3 99/5/3 98/5/3
f 102/5/3 101/5/3 100/5/3
f 103/5/3 101/5/3 102/5/3
f 104/5/3 101/5/3 103/5/3
f 106/5/3 100/5/3 98/5/3
f 106/5/3 102/5/3 100/5/3
f 107/5/3 102/5/3 106/5/3
f 108/5/3 105/5/3 104/5/3
f 108/5/3 104/5/3 103/5/3
f 109/5/3 105/5/3 108/5/3
f 110/5/3 106/5/3 98/5/3
f 111/5/3 106/5/3 110/5/3
f 114/5/3 113/5/3 112/5/3
f 115/5/3 113/5/3 114/5/3
f 119/1/3 116/1/3 115/1/3
f 120/1/3 116/1/3 119/1/3
f 123/1/3 118/1/3 117/1/3
f 124/1/3 118/1/3 123/1/3
f 126/5/3 122/5/3 121/5/3
f 127/5/3 122/5/3 126/5/3
f 128/5/3 125/5/3 124/5/3
f 129/5/3 125/5/3 128/5/3
f 132/5/3 131/5/3 130/5/3
f 133/5/3 131/5/3 132/5/3
f 134/5/4 135/5/4 136/5/4
f 136/5/4 135/5/4 137/5/4
f 138/5/4 139/5/4 140/5/4
f 140/5/4 139/5/4 141/5/4
f 142/5/4 143/5/4 144/5/4
f 144/5/4 143/5/4 145/5/4
f 146/1/4 147/1/4 148/1/4
f 148/1/4 147/1/4 149/1/4
f 150/5/4 151/5/4 152/5/4
f 152/5/4 151/5/4 153/5/4
f 156/5/4 157/5/4 158/5/4
f 158/5/4 159/5/4 162/5/4
f 160/5/4 161/5/4 163/5/4
f 156/5/4 158/5/4 164/5/4
f 162/5/4 163/5/4 164/5/4
f 158/5/4 162/5/4 164/5/4
f 163/5/4 161/5/4 165/5/4
f 164/5/4 163/5/4 165/5/4
f 154/3/4 155/3/4 166/3/4
f 155/2/4 156/2/4 167/2/4
f 166/3/4 155/3/4 167/3/4
f 156/5/4 164/5/4 168/5/4
f 167/2/4 156/2/4 168/2/4
f 168/5/4 164/5/4 169/5/4
f 172/3/5 171/3/5 170/3/5
f 173/3/5 171/3/5 172/3/5
f 176/5/5 175/5/5 174/5/5
f 177/5/5 175/5/5 176/5/5
f 180/5/5 179/5/5 178/5/5
f 181/5/5 179/5/5 180/5/5
f 183/5/5 182/5/5 181/5/5
f 184/5/5 182/5/5 183/5/5
f 187/5/5 186/5/5 185/5/5
f 188/5/5 186/5/5 187/5/5
f 189/4/6 190/4/6 191/4/6
f 191/4/6 190/4/6 192/4/6
f 191/2/6 192/2/6 193/2/6
f 193/2/6 192/2/6 194/2/6
f 195/5/6 196/5/6 199/5/6
f 199/5/6 196/5/6 200/5/6
f 197/5/6 198/5/6 201/5/6
f 201/5/6 198/5/6 202/5/6
f 203/5/6 204/5/6 207/5/6
f 205/5/6 206/5/6 208/5/6
f 203/5/6 207/5/6 209/5/6
f 209/5/6 207/5/6 210/5/6
f 208/5/6 206/5/6 211/5/6
f 211/5/6 206/5/6 212/5/6
f 213/5/6 214/5/6 215/5/6
f 215/5/6 214/5/6 216/5/6
f 217/5/6 218/5/6 219/5/6
f 219/5/6 218/5/6 220/5/6
f 221/5/6 222/5/6 223/5/6
f 223/5/6 222/5/6 224/5/6
f 225/5/6 226/5/6 227/5/6
f 227/5/6 226/5/6 228/5/6
f 229/5/6 230/5/6 232/5/6
f 232/5/6 230/5/6 233/5/6
f 231/5/6 232/5/6 234/5/6
f 234/5/6 232/5/6 235/5/6
f 236/5/6 237/5/6 239/5/6
f 239/5/6 237/5/6 240/5/6
f 238/1/6 239/1/6 242/1/6
f 239/1/6 240/1/6 242/1/6
f 240/5/6 241/5/6 243/5/6
f 242/1/6 240/1/6 243/1/6
f 243/5/6 241/5/6 244/5/6
f 242/5/6 243/5/6 245/5/6
f 245/5/6 243/5/6 246/5/6
