# MagicaVoxel @ Ephtracy

# group
o 

# material
mtllib Basic Zombie2-4.mtl
usemtl palette

# normals
vn -1 0 0
vn 1 0 0
vn 0 0 1
vn 0 0 -1
vn 0 -1 0
vn 0 1 0

# texcoords
vt 0.478516 0.5
vt 0.509766 0.5
vt 0.513672 0.5
vt 0.537109 0.5
vt 0.685547 0.5

# verts
v 0.2 0 0.2
v 0.2 0 -0.7
v 0.2 0.1 0.2
v 0.2 0.1 -0.7
v 0.2 0.2 0.2
v 0.2 0.2 -0.1
v 0.2 0.2 -0.2
v 0.2 0.2 -0.7
v 0.2 0.3 0.2
v 0.2 0.3 -0.1
v 0.2 0.3 -0.2
v 0.2 0.5 -0.2
v 0.2 0.5 -0.3
v 0.2 0.5 -0.6
v 0.2 0.5 -0.7
v 0.2 0.6 -0.3
v 0.2 0.6 -0.6
v 0.3 0.5 -0.2
v 0.3 0.5 -0.3
v 0.3 0.5 -0.6
v 0.3 0.5 -0.7
v 0.3 0.6 -0.3
v 0.3 0.6 -0.6
v 0.3 0.7 -0.2
v 0.3 0.7 -0.3
v 0.3 0.7 -0.6
v 0.3 0.7 -0.7
v 0.3 0.9 -0.3
v 0.3 0.9 -0.4
v 0.3 0.9 -0.6
v 0.3 0.9 -0.7
v 0.3 1 -0.4
v 0.3 1 -0.6
v 0.3 1 -0.7
v 0.4 0.9 -0.6
v 0.4 0.9 -0.7
v 0.4 1 -0.6
v 0.4 1 -0.7
v 0.5 0.5 -0.2
v 0.5 0.5 -0.3
v 0.5 0.5 -0.6
v 0.5 0.5 -0.7
v 0.5 0.6 -0.5
v 0.5 0.6 -0.6
v 0.5 0.7 -0.2
v 0.5 0.7 -0.3
v 0.5 0.7 -0.5
v 0.5 0.7 -0.6
v 0.5 0.7 -0.7
v 0.5 0.9 -0.3
v 0.5 0.9 -0.4
v 0.5 1 -0.4
v 0.5 1 -0.6
v 0.6 0 0.2
v 0.6 0 -0.7
v 0.6 0.1 0.2
v 0.6 0.1 -0.7
v 0.6 0.2 0.2
v 0.6 0.2 -0.1
v 0.6 0.2 -0.2
v 0.6 0.2 -0.7
v 0.6 0.3 0.2
v 0.6 0.3 -0.1
v 0.6 0.3 -0.2
v 0.6 0.5 -0.2
v 0.6 0.5 -0.3
v 0.6 0.5 -0.6
v 0.6 0.5 -0.7
v 0.6 0.6 -0.5
v 0.6 0.6 -0.6
v 0.6 0.7 -0.3
v 0.6 0.7 -0.5
v 0.2 0 0.2
v 0.2 0.1 0.2
v 0.2 0.2 0.2
v 0.2 0.3 0.2
v 0.6 0 0.2
v 0.6 0.1 0.2
v 0.6 0.2 0.2
v 0.6 0.3 0.2
v 0.2 0.3 -0.2
v 0.2 0.5 -0.2
v 0.3 0.5 -0.2
v 0.3 0.7 -0.2
v 0.5 0.5 -0.2
v 0.5 0.7 -0.2
v 0.6 0.3 -0.2
v 0.6 0.5 -0.2
v 0.2 0.5 -0.3
v 0.2 0.6 -0.3
v 0.3 0.5 -0.3
v 0.3 0.6 -0.3
v 0.3 0.7 -0.3
v 0.3 0.9 -0.3
v 0.5 0.5 -0.3
v 0.5 0.7 -0.3
v 0.5 0.9 -0.3
v 0.6 0.5 -0.3
v 0.6 0.7 -0.3
v 0.3 0.9 -0.4
v 0.3 1 -0.4
v 0.5 0.9 -0.4
v 0.5 1 -0.4
v 0.5 0.6 -0.5
v 0.5 0.7 -0.5
v 0.6 0.6 -0.5
v 0.6 0.7 -0.5
v 0.2 0.5 -0.6
v 0.2 0.6 -0.6
v 0.3 0.5 -0.6
v 0.3 0.6 -0.6
v 0.3 0.7 -0.6
v 0.3 0.9 -0.6
v 0.4 0.9 -0.6
v 0.4 1 -0.6
v 0.5 0.5 -0.6
v 0.5 0.6 -0.6
v 0.5 0.7 -0.6
v 0.5 1 -0.6
v 0.6 0.5 -0.6
v 0.6 0.6 -0.6
v 0.2 0 -0.7
v 0.2 0.1 -0.7
v 0.2 0.2 -0.7
v 0.2 0.5 -0.7
v 0.3 0.5 -0.7
v 0.3 0.7 -0.7
v 0.3 0.9 -0.7
v 0.3 1 -0.7
v 0.4 0.9 -0.7
v 0.4 1 -0.7
v 0.5 0.5 -0.7
v 0.5 0.7 -0.7
v 0.6 0 -0.7
v 0.6 0.1 -0.7
v 0.6 0.2 -0.7
v 0.6 0.5 -0.7
v 0.2 0 0.2
v 0.6 0 0.2
v 0.2 0 -0.7
v 0.6 0 -0.7
v 0.3 0.9 -0.6
v 0.4 0.9 -0.6
v 0.3 0.9 -0.7
v 0.4 0.9 -0.7
v 0.2 0.3 0.2
v 0.6 0.3 0.2
v 0.2 0.3 -0.1
v 0.6 0.3 -0.1
v 0.2 0.3 -0.2
v 0.6 0.3 -0.2
v 0.2 0.5 -0.2
v 0.3 0.5 -0.2
v 0.5 0.5 -0.2
v 0.6 0.5 -0.2
v 0.2 0.5 -0.3
v 0.3 0.5 -0.3
v 0.5 0.5 -0.3
v 0.6 0.5 -0.3
v 0.2 0.5 -0.6
v 0.3 0.5 -0.6
v 0.5 0.5 -0.6
v 0.6 0.5 -0.6
v 0.2 0.5 -0.7
v 0.3 0.5 -0.7
v 0.5 0.5 -0.7
v 0.6 0.5 -0.7
v 0.2 0.6 -0.3
v 0.3 0.6 -0.3
v 0.5 0.6 -0.5
v 0.6 0.6 -0.5
v 0.2 0.6 -0.6
v 0.3 0.6 -0.6
v 0.5 0.6 -0.6
v 0.6 0.6 -0.6
v 0.3 0.7 -0.2
v 0.5 0.7 -0.2
v 0.3 0.7 -0.3
v 0.5 0.7 -0.3
v 0.6 0.7 -0.3
v 0.5 0.7 -0.5
v 0.6 0.7 -0.5
v 0.3 0.7 -0.6
v 0.5 0.7 -0.6
v 0.3 0.7 -0.7
v 0.5 0.7 -0.7
v 0.3 0.9 -0.3
v 0.5 0.9 -0.3
v 0.3 0.9 -0.4
v 0.5 0.9 -0.4
v 0.3 1 -0.4
v 0.5 1 -0.4
v 0.3 1 -0.6
v 0.4 1 -0.6
v 0.5 1 -0.6
v 0.3 1 -0.7
v 0.4 1 -0.7

# faces
f 3/3/1 2/3/1 1/3/1
f 4/3/1 2/3/1 3/3/1
f 5/2/1 4/2/1 3/2/1
f 6/2/1 4/2/1 5/2/1
f 7/2/1 4/2/1 6/2/1
f 8/2/1 4/2/1 7/2/1
f 9/4/1 6/4/1 5/4/1
f 10/2/1 7/2/1 6/2/1
f 10/4/1 6/4/1 9/4/1
f 11/5/1 8/5/1 7/5/1
f 11/2/1 7/2/1 10/2/1
f 12/5/1 8/5/1 11/5/1
f 13/5/1 8/5/1 12/5/1
f 14/5/1 8/5/1 13/5/1
f 15/5/1 8/5/1 14/5/1
f 16/5/1 14/5/1 13/5/1
f 17/5/1 14/5/1 16/5/1
f 22/5/1 19/5/1 18/5/1
f 23/5/1 21/5/1 20/5/1
f 24/5/1 22/5/1 18/5/1
f 25/1/1 23/1/1 22/1/1
f 25/5/1 22/5/1 24/5/1
f 26/5/1 21/5/1 23/5/1
f 26/1/1 23/1/1 25/1/1
f 27/5/1 21/5/1 26/5/1
f 28/1/1 26/1/1 25/1/1
f 29/1/1 26/1/1 28/1/1
f 30/1/1 26/1/1 29/1/1
f 32/1/1 30/1/1 29/1/1
f 33/5/1 31/5/1 30/5/1
f 33/1/1 30/1/1 32/1/1
f 34/5/1 31/5/1 33/5/1
f 35/5/2 36/5/2 37/5/2
f 37/5/2 36/5/2 38/5/2
f 41/5/2 42/5/2 44/5/2
f 39/5/2 40/5/2 45/5/2
f 45/5/2 40/5/2 46/5/2
f 43/1/2 44/1/2 47/1/2
f 44/5/2 42/5/2 48/5/2
f 47/1/2 44/1/2 48/1/2
f 48/5/2 42/5/2 49/5/2
f 46/1/2 47/1/2 50/1/2
f 47/1/2 48/1/2 50/1/2
f 50/1/2 48/1/2 51/1/2
f 51/1/2 48/1/2 52/1/2
f 52/1/2 48/1/2 53/1/2
f 54/3/2 55/3/2 56/3/2
f 56/3/2 55/3/2 57/3/2
f 56/2/2 57/2/2 58/2/2
f 58/2/2 57/2/2 59/2/2
f 59/2/2 57/2/2 60/2/2
f 60/2/2 57/2/2 61/2/2
f 58/4/2 59/4/2 62/4/2
f 59/2/2 60/2/2 63/2/2
f 62/4/2 59/4/2 63/4/2
f 60/5/2 61/5/2 64/5/2
f 63/2/2 60/2/2 64/2/2
f 64/5/2 61/5/2 65/5/2
f 65/5/2 61/5/2 66/5/2
f 66/5/2 61/5/2 67/5/2
f 67/5/2 61/5/2 68/5/2
f 66/5/2 67/5/2 69/5/2
f 69/5/2 67/5/2 70/5/2
f 66/5/2 69/5/2 71/5/2
f 71/5/2 69/5/2 72/5/2
f 77/3/3 74/3/3 73/3/3
f 78/2/3 75/2/3 74/2/3
f 78/3/3 74/3/3 77/3/3
f 79/4/3 76/4/3 75/4/3
f 79/2/3 75/2/3 78/2/3
f 80/4/3 76/4/3 79/4/3
f 83/5/3 82/5/3 81/5/3
f 85/5/3 83/5/3 81/5/3
f 85/5/3 84/5/3 83/5/3
f 86/5/3 84/5/3 85/5/3
f 87/5/3 85/5/3 81/5/3
f 88/5/3 85/5/3 87/5/3
f 91/5/3 90/5/3 89/5/3
f 92/5/3 90/5/3 91/5/3
f 96/1/3 94/1/3 93/1/3
f 97/1/3 94/1/3 96/1/3
f 98/5/3 96/5/3 95/5/3
f 99/5/3 96/5/3 98/5/3
f 102/1/3 101/1/3 100/1/3
f 103/1/3 101/1/3 102/1/3
f 104/5/4 105/5/4 106/5/4
f 106/5/4 105/5/4 107/5/4
f 108/5/4 109/5/4 110/5/4
f 110/5/4 109/5/4 111/5/4
f 112/1/4 113/1/4 114/1/4
f 112/1/4 114/1/4 118/1/4
f 114/1/4 115/1/4 118/1/4
f 118/1/4 115/1/4 119/1/4
f 116/5/4 117/5/4 120/5/4
f 120/5/4 117/5/4 121/5/4
f 124/5/4 125/5/4 126/5/4
f 128/5/4 129/5/4 130/5/4
f 130/5/4 129/5/4 131/5/4
f 124/5/4 126/5/4 132/5/4
f 126/5/4 127/5/4 132/5/4
f 132/5/4 127/5/4 133/5/4
f 122/3/4 123/3/4 134/3/4
f 123/2/4 124/2/4 135/2/4
f 134/3/4 123/3/4 135/3/4
f 124/5/4 132/5/4 136/5/4
f 135/2/4 124/2/4 136/2/4
f 136/5/4 132/5/4 137/5/4
f 140/3/5 139/3/5 138/3/5
f 141/3/5 139/3/5 140/3/5
f 144/5/5 143/5/5 142/5/5
f 145/5/5 143/5/5 144/5/5
f 146/4/6 147/4/6 148/4/6
f 148/4/6 147/4/6 149/4/6
f 148/2/6 149/2/6 150/2/6
f 150/2/6 149/2/6 151/2/6
f 152/5/6 153/5/6 156/5/6
f 156/5/6 153/5/6 157/5/6
f 154/5/6 155/5/6 158/5/6
f 158/5/6 155/5/6 159/5/6
f 160/5/6 161/5/6 164/5/6
f 164/5/6 161/5/6 165/5/6
f 162/5/6 163/5/6 166/5/6
f 166/5/6 163/5/6 167/5/6
f 168/5/6 169/5/6 172/5/6
f 172/5/6 169/5/6 173/5/6
f 170/5/6 171/5/6 174/5/6
f 174/5/6 171/5/6 175/5/6
f 176/5/6 177/5/6 178/5/6
f 178/5/6 177/5/6 179/5/6
f 179/5/6 180/5/6 181/5/6
f 181/5/6 180/5/6 182/5/6
f 183/5/6 184/5/6 185/5/6
f 185/5/6 184/5/6 186/5/6
f 187/1/6 188/1/6 189/1/6
f 189/1/6 188/1/6 190/1/6
f 191/1/6 192/1/6 193/1/6
f 193/1/6 192/1/6 194/1/6
f 194/1/6 192/1/6 195/1/6
f 193/5/6 194/5/6 196/5/6
f 196/5/6 194/5/6 197/5/6
