# MagicaVoxel @ Ephtracy

# group
o 

# material
mtllib Basic Zombie2-9.mtl
usemtl palette

# normals
vn -1 0 0
vn 1 0 0
vn 0 0 1
vn 0 0 -1
vn 0 -1 0
vn 0 1 0

# texcoords
vt 0.478516 0.5
vt 0.537109 0.5

# verts
v 0.7 3 0.8
v 0.7 3 0.5
v 0.7 3.1 1.4
v 0.7 3.1 1.3
v 0.7 3.2 1.4
v 0.7 3.2 1.3
v 0.7 3.2 0.8
v 0.7 3.2 0.7
v 0.7 3.2 0.4
v 0.7 3.2 0.3
v 0.7 3.3 1.4
v 0.7 3.3 1.3
v 0.7 3.3 0.9
v 0.7 3.3 0.7
v 0.7 3.3 0.5
v 0.7 3.3 0.4
v 0.7 3.4 1.4
v 0.7 3.4 1.3
v 0.7 3.4 0.9
v 0.7 3.4 0.3
v 0.8 3 0.5
v 0.8 3 0.4
v 0.8 3.1 0.4
v 0.8 3.1 0.3
v 0.8 3.2 0.4
v 0.8 3.2 0.3
v 0.8 3.3 0.5
v 0.8 3.3 0.4
v 0.8 3.4 1.1
v 0.8 3.4 1
v 0.8 3.5 1.1
v 0.8 3.5 1
v 0.9 3 0.9
v 0.9 3 0.8
v 0.9 3 0.4
v 0.9 3 0.3
v 0.9 3.1 1.3
v 0.9 3.1 1
v 0.9 3.1 0.9
v 0.9 3.1 0.4
v 0.9 3.1 0.3
v 0.9 3.2 1.3
v 0.9 3.2 1
v 0.9 3.2 0.8
v 0.9 3.2 0.7
v 0.9 3.3 1.3
v 0.9 3.3 1
v 0.9 3.3 0.9
v 0.9 3.3 0.7
v 0.9 3.4 1.3
v 0.9 3.4 1.1
v 0.9 3.4 1
v 0.9 3.4 0.9
v 1 3 1
v 1 3 0.9
v 1 3.1 1
v 1 3.1 0.9
v 0.9 3.3 0.7
v 0.9 3.3 0.4
v 0.9 3.4 0.7
v 0.9 3.4 0.4
v 1 3.1 1.4
v 1 3.1 1.3
v 1 3.2 1.4
v 1 3.2 1.3
v 1 3.3 1.4
v 1 3.3 1.3
v 1 3.4 1.4
v 1 3.4 1.3
v 1 3.4 1.1
v 1 3.4 1
v 1 3.5 1.1
v 1 3.5 1
v 1.1 3 1
v 1.1 3 0.3
v 1.1 3.1 1.3
v 1.1 3.1 1
v 1.1 3.3 0.7
v 1.1 3.3 0.4
v 1.1 3.4 1.3
v 1.1 3.4 1
v 1.1 3.4 0.7
v 1.1 3.4 0.4
v 1.1 3.4 0.3
v 0.7 3.1 1.4
v 0.7 3.2 1.4
v 0.7 3.3 1.4
v 0.7 3.4 1.4
v 1 3.1 1.4
v 1 3.2 1.4
v 1 3.3 1.4
v 1 3.4 1.4
v 0.9 3.2 1.3
v 0.9 3.3 1.3
v 1 3.1 1.3
v 1 3.2 1.3
v 1 3.3 1.3
v 1 3.4 1.3
v 1.1 3.1 1.3
v 1.1 3.4 1.3
v 0.8 3.4 1.1
v 0.8 3.5 1.1
v 0.9 3.4 1.1
v 1 3.4 1.1
v 1 3.5 1.1
v 1 3 1
v 1 3.1 1
v 1.1 3 1
v 1.1 3.1 1
v 0.7 3.3 0.9
v 0.7 3.4 0.9
v 0.9 3 0.9
v 0.9 3.1 0.9
v 0.9 3.3 0.9
v 0.9 3.4 0.9
v 1 3 0.9
v 1 3.1 0.9
v 0.7 3 0.8
v 0.7 3.2 0.8
v 0.9 3 0.8
v 0.9 3.2 0.8
v 0.7 3.2 0.7
v 0.7 3.3 0.7
v 0.9 3.2 0.7
v 0.9 3.3 0.7
v 0.7 3.2 0.4
v 0.7 3.3 0.4
v 0.8 3.2 0.4
v 0.8 3.3 0.4
v 0.9 3.3 0.4
v 0.9 3.4 0.4
v 1 3.3 0.4
v 1.1 3.3 0.4
v 1.1 3.4 0.4
v 0.7 3.1 1.3
v 0.7 3.2 1.3
v 0.7 3.3 1.3
v 0.7 3.4 1.3
v 0.9 3.1 1.3
v 0.9 3.2 1.3
v 0.9 3.3 1.3
v 0.9 3.4 1.3
v 0.8 3.4 1
v 0.8 3.5 1
v 0.9 3.4 1
v 1 3.4 1
v 1 3.5 1
v 0.9 3.3 0.7
v 0.9 3.4 0.7
v 1 3.3 0.7
v 1.1 3.3 0.7
v 1.1 3.4 0.7
v 0.7 3 0.5
v 0.7 3.3 0.5
v 0.8 3 0.5
v 0.8 3.3 0.5
v 0.8 3 0.4
v 0.8 3.1 0.4
v 0.9 3 0.4
v 0.9 3.1 0.4
v 0.7 3.2 0.3
v 0.7 3.4 0.3
v 0.8 3.1 0.3
v 0.8 3.2 0.3
v 0.9 3 0.3
v 0.9 3.1 0.3
v 0.9 3.2 0.3
v 0.9 3.3 0.3
v 1 3.2 0.3
v 1 3.3 0.3
v 1.1 3 0.3
v 1.1 3.4 0.3
v 1 3 1
v 1.1 3 1
v 0.9 3 0.9
v 1 3 0.9
v 0.7 3 0.8
v 0.9 3 0.8
v 0.7 3 0.5
v 0.8 3 0.5
v 0.8 3 0.4
v 0.9 3 0.4
v 0.9 3 0.3
v 1.1 3 0.3
v 0.7 3.1 1.4
v 1 3.1 1.4
v 0.7 3.1 1.3
v 0.9 3.1 1.3
v 1 3.1 1.3
v 1.1 3.1 1.3
v 0.9 3.1 1
v 1 3.1 1
v 1.1 3.1 1
v 0.9 3.1 0.9
v 1 3.1 0.9
v 0.8 3.1 0.4
v 0.9 3.1 0.4
v 0.8 3.1 0.3
v 0.9 3.1 0.3
v 0.7 3.2 0.4
v 0.8 3.2 0.4
v 0.7 3.2 0.3
v 0.8 3.2 0.3
v 0.7 3.3 1.4
v 1 3.3 1.4
v 0.7 3.3 1.3
v 0.9 3.3 1.3
v 1 3.3 1.3
v 0.7 3.3 0.9
v 0.9 3.3 0.9
v 0.7 3.3 0.7
v 0.9 3.3 0.7
v 0.7 3.3 0.5
v 0.8 3.3 0.5
v 0.7 3.3 0.4
v 0.8 3.3 0.4
v 0.8 3.4 1.1
v 0.9 3.4 1.1
v 0.8 3.4 1
v 0.9 3.4 1
v 0.7 3.2 1.4
v 1 3.2 1.4
v 0.7 3.2 1.3
v 0.9 3.2 1.3
v 1 3.2 1.3
v 0.7 3.2 0.8
v 0.9 3.2 0.8
v 0.7 3.2 0.7
v 0.9 3.2 0.7
v 0.9 3.3 0.7
v 1 3.3 0.7
v 1.1 3.3 0.7
v 0.9 3.3 0.4
v 1 3.3 0.4
v 1.1 3.3 0.4
v 0.7 3.4 1.4
v 1 3.4 1.4
v 0.7 3.4 1.3
v 0.9 3.4 1.3
v 1 3.4 1.3
v 1.1 3.4 1.3
v 0.9 3.4 1.1
v 1 3.4 1.1
v 0.9 3.4 1
v 1 3.4 1
v 1.1 3.4 1
v 0.7 3.4 0.9
v 0.9 3.4 0.9
v 0.9 3.4 0.7
v 1.1 3.4 0.7
v 0.9 3.4 0.4
v 1.1 3.4 0.4
v 0.7 3.4 0.3
v 1.1 3.4 0.3
v 0.8 3.5 1.1
v 1 3.5 1.1
v 0.8 3.5 1
v 1 3.5 1

# faces
f 5/1/1 4/1/1 3/1/1
f 6/1/1 4/1/1 5/1/1
f 7/2/1 2/2/1 1/2/1
f 8/2/1 2/2/1 7/2/1
f 14/2/1 2/2/1 8/2/1
f 15/2/1 2/2/1 14/2/1
f 16/2/1 10/2/1 9/2/1
f 17/1/1 12/1/1 11/1/1
f 18/1/1 12/1/1 17/1/1
f 19/2/1 15/2/1 14/2/1
f 19/2/1 16/2/1 15/2/1
f 19/2/1 14/2/1 13/2/1
f 20/2/1 10/2/1 16/2/1
f 20/2/1 16/2/1 19/2/1
f 23/2/1 22/2/1 21/2/1
f 25/2/1 23/2/1 21/2/1
f 25/2/1 24/2/1 23/2/1
f 26/2/1 24/2/1 25/2/1
f 27/2/1 25/2/1 21/2/1
f 28/2/1 25/2/1 27/2/1
f 31/1/1 30/1/1 29/1/1
f 32/1/1 30/1/1 31/1/1
f 39/2/1 34/2/1 33/2/1
f 40/2/1 36/2/1 35/2/1
f 41/2/1 36/2/1 40/2/1
f 42/1/1 38/1/1 37/1/1
f 43/2/1 39/2/1 38/2/1
f 43/1/1 38/1/1 42/1/1
f 44/2/1 34/2/1 39/2/1
f 44/2/1 39/2/1 43/2/1
f 46/1/1 43/1/1 42/1/1
f 46/1/1 45/1/1 44/1/1
f 46/1/1 44/1/1 43/1/1
f 47/1/1 45/1/1 46/1/1
f 48/1/1 45/1/1 47/1/1
f 49/1/1 45/1/1 48/1/1
f 50/1/1 47/1/1 46/1/1
f 51/1/1 47/1/1 50/1/1
f 52/2/1 48/2/1 47/2/1
f 52/1/1 47/1/1 51/1/1
f 53/2/1 48/2/1 52/2/1
f 56/2/1 55/2/1 54/2/1
f 57/2/1 55/2/1 56/2/1
f 58/2/2 59/2/2 60/2/2
f 60/2/2 59/2/2 61/2/2
f 62/1/2 63/1/2 64/1/2
f 64/1/2 63/1/2 65/1/2
f 66/1/2 67/1/2 68/1/2
f 68/1/2 67/1/2 69/1/2
f 70/1/2 71/1/2 72/1/2
f 72/1/2 71/1/2 73/1/2
f 74/2/2 75/2/2 77/2/2
f 77/2/2 75/2/2 78/2/2
f 78/2/2 75/2/2 79/2/2
f 76/1/2 77/1/2 80/1/2
f 77/2/2 78/2/2 81/2/2
f 80/1/2 77/1/2 81/1/2
f 81/2/2 78/2/2 82/2/2
f 79/2/2 75/2/2 83/2/2
f 83/2/2 75/2/2 84/2/2
f 89/1/3 86/1/3 85/1/3
f 90/1/3 86/1/3 89/1/3
f 91/1/3 88/1/3 87/1/3
f 92/1/3 88/1/3 91/1/3
f 96/1/3 94/1/3 93/1/3
f 97/1/3 94/1/3 96/1/3
f 99/1/3 96/1/3 95/1/3
f 99/1/3 98/1/3 97/1/3
f 99/1/3 97/1/3 96/1/3
f 100/1/3 98/1/3 99/1/3
f 103/1/3 102/1/3 101/1/3
f 104/1/3 102/1/3 103/1/3
f 105/1/3 102/1/3 104/1/3
f 108/2/3 107/2/3 106/2/3
f 109/2/3 107/2/3 108/2/3
f 114/2/3 111/2/3 110/2/3
f 115/2/3 111/2/3 114/2/3
f 116/2/3 113/2/3 112/2/3
f 117/2/3 113/2/3 116/2/3
f 120/2/3 119/2/3 118/2/3
f 121/2/3 119/2/3 120/2/3
f 124/2/3 123/2/3 122/2/3
f 125/2/3 123/2/3 124/2/3
f 128/2/3 127/2/3 126/2/3
f 129/2/3 127/2/3 128/2/3
f 132/2/3 131/2/3 130/2/3
f 133/2/3 131/2/3 132/2/3
f 134/2/3 131/2/3 133/2/3
f 135/1/4 136/1/4 139/1/4
f 139/1/4 136/1/4 140/1/4
f 137/1/4 138/1/4 141/1/4
f 141/1/4 138/1/4 142/1/4
f 143/1/4 144/1/4 145/1/4
f 145/1/4 144/1/4 146/1/4
f 146/1/4 144/1/4 147/1/4
f 148/2/4 149/2/4 150/2/4
f 150/2/4 149/2/4 151/2/4
f 151/2/4 149/2/4 152/2/4
f 153/2/4 154/2/4 155/2/4
f 155/2/4 154/2/4 156/2/4
f 157/2/4 158/2/4 159/2/4
f 159/2/4 158/2/4 160/2/4
f 161/2/4 162/2/4 164/2/4
f 163/2/4 164/2/4 166/2/4
f 164/2/4 162/2/4 167/2/4
f 166/2/4 164/2/4 167/2/4
f 167/2/4 162/2/4 168/2/4
f 165/2/4 166/2/4 169/2/4
f 166/2/4 167/2/4 169/2/4
f 167/1/4 168/1/4 169/1/4
f 168/2/4 162/2/4 170/2/4
f 169/1/4 168/1/4 170/1/4
f 165/2/4 169/2/4 171/2/4
f 169/2/4 170/2/4 171/2/4
f 170/2/4 162/2/4 172/2/4
f 171/2/4 170/2/4 172/2/4
f 176/2/5 174/2/5 173/2/5
f 178/2/5 176/2/5 175/2/5
f 179/2/5 178/2/5 177/2/5
f 180/2/5 178/2/5 179/2/5
f 181/2/5 178/2/5 180/2/5
f 182/2/5 176/2/5 178/2/5
f 182/2/5 178/2/5 181/2/5
f 183/2/5 176/2/5 182/2/5
f 184/2/5 174/2/5 176/2/5
f 184/2/5 176/2/5 183/2/5
f 187/1/5 186/1/5 185/1/5
f 188/1/5 186/1/5 187/1/5
f 189/1/5 186/1/5 188/1/5
f 191/1/5 190/1/5 189/1/5
f 191/1/5 189/1/5 188/1/5
f 192/1/5 190/1/5 191/1/5
f 193/1/5 190/1/5 192/1/5
f 194/2/5 192/2/5 191/2/5
f 195/2/5 192/2/5 194/2/5
f 198/2/5 197/2/5 196/2/5
f 199/2/5 197/2/5 198/2/5
f 202/2/5 201/2/5 200/2/5
f 203/2/5 201/2/5 202/2/5
f 206/1/5 205/1/5 204/1/5
f 207/1/5 205/1/5 206/1/5
f 208/1/5 205/1/5 207/1/5
f 211/2/5 210/2/5 209/2/5
f 212/2/5 210/2/5 211/2/5
f 215/2/5 214/2/5 213/2/5
f 216/2/5 214/2/5 215/2/5
f 219/1/5 218/1/5 217/1/5
f 220/1/5 218/1/5 219/1/5
f 221/1/6 222/1/6 223/1/6
f 223/1/6 222/1/6 224/1/6
f 224/1/6 222/1/6 225/1/6
f 226/2/6 227/2/6 228/2/6
f 228/2/6 227/2/6 229/2/6
f 230/1/6 231/1/6 233/1/6
f 231/2/6 232/2/6 234/2/6
f 233/1/6 231/1/6 234/1/6
f 234/2/6 232/2/6 235/2/6
f 236/1/6 237/1/6 238/1/6
f 238/1/6 237/1/6 239/1/6
f 239/1/6 237/1/6 240/1/6
f 240/1/6 241/1/6 242/1/6
f 239/1/6 240/1/6 242/1/6
f 242/1/6 241/1/6 243/1/6
f 243/1/6 241/1/6 245/1/6
f 245/1/6 241/1/6 246/1/6
f 244/2/6 245/2/6 248/2/6
f 245/2/6 246/2/6 248/2/6
f 248/2/6 246/2/6 249/2/6
f 247/2/6 248/2/6 249/2/6
f 249/2/6 246/2/6 250/2/6
f 247/2/6 249/2/6 251/2/6
f 247/2/6 251/2/6 253/2/6
f 251/2/6 252/2/6 253/2/6
f 253/2/6 252/2/6 254/2/6
f 255/1/6 256/1/6 257/1/6
f 257/1/6 256/1/6 258/1/6
