# MagicaVoxel @ Ephtracy

# group
o 

# material
mtllib Basic Zombie2-1.mtl
usemtl palette

# normals
vn -1 0 0
vn 1 0 0
vn 0 0 1
vn 0 0 -1
vn 0 -1 0
vn 0 1 0

# texcoords
vt 0.478516 0.5
vt 0.685547 0.5

# verts
v -0.7 1 -0.3
v -0.7 1 -0.6
v -0.7 1.3 -0.2
v -0.7 1.3 -0.3
v -0.7 1.8 -0.2
v -0.7 1.8 -0.6
v -0.6 1 -0.2
v -0.6 1 -0.3
v -0.6 1 -0.6
v -0.6 1 -0.7
v -0.6 1.3 -0.2
v -0.6 1.3 -0.3
v -0.6 1.8 -0.6
v -0.6 1.8 -0.7
v -0.5 1.2 -0.2
v -0.5 1.2 -0.3
v -0.5 1.3 -0.2
v -0.5 1.3 -0.3
v -0.4 1 -0.2
v -0.4 1 -0.3
v -0.4 1 -0.6
v -0.4 1 -0.7
v -0.4 1.2 -0.2
v -0.4 1.2 -0.3
v -0.4 1.2 -0.4
v -0.4 1.3 -0.2
v -0.4 1.3 -0.3
v -0.4 1.4 -0.3
v -0.4 1.4 -0.4
v -0.4 1.8 -0.2
v -0.4 1.8 -0.3
v -0.4 1.8 -0.6
v -0.4 1.8 -0.7
v -0.3 1 -0.3
v -0.3 1 -0.6
v -0.3 1.2 -0.3
v -0.3 1.2 -0.4
v -0.3 1.4 -0.3
v -0.3 1.4 -0.4
v -0.3 1.8 -0.3
v -0.3 1.8 -0.6
v -0.7 1.3 -0.2
v -0.7 1.8 -0.2
v -0.6 1 -0.2
v -0.6 1.3 -0.2
v -0.5 1.2 -0.2
v -0.5 1.3 -0.2
v -0.4 1 -0.2
v -0.4 1.2 -0.2
v -0.4 1.3 -0.2
v -0.4 1.8 -0.2
v -0.7 1 -0.3
v -0.7 1.3 -0.3
v -0.6 1 -0.3
v -0.6 1.3 -0.3
v -0.5 1.2 -0.3
v -0.5 1.3 -0.3
v -0.4 1 -0.3
v -0.4 1.2 -0.3
v -0.4 1.3 -0.3
v -0.4 1.4 -0.3
v -0.4 1.8 -0.3
v -0.3 1 -0.3
v -0.3 1.2 -0.3
v -0.3 1.4 -0.3
v -0.3 1.8 -0.3
v -0.4 1.2 -0.4
v -0.4 1.4 -0.4
v -0.3 1.2 -0.4
v -0.3 1.4 -0.4
v -0.7 1 -0.6
v -0.7 1.8 -0.6
v -0.6 1 -0.6
v -0.6 1.8 -0.6
v -0.4 1 -0.6
v -0.4 1.8 -0.6
v -0.3 1 -0.6
v -0.3 1.8 -0.6
v -0.6 1 -0.7
v -0.6 1.8 -0.7
v -0.4 1 -0.7
v -0.4 1.8 -0.7
v -0.6 1 -0.2
v -0.4 1 -0.2
v -0.7 1 -0.3
v -0.6 1 -0.3
v -0.4 1 -0.3
v -0.3 1 -0.3
v -0.7 1 -0.6
v -0.6 1 -0.6
v -0.4 1 -0.6
v -0.3 1 -0.6
v -0.6 1 -0.7
v -0.4 1 -0.7
v -0.7 1.3 -0.2
v -0.6 1.3 -0.2
v -0.5 1.3 -0.2
v -0.4 1.3 -0.2
v -0.7 1.3 -0.3
v -0.6 1.3 -0.3
v -0.5 1.3 -0.3
v -0.4 1.3 -0.3
v -0.4 1.4 -0.3
v -0.3 1.4 -0.3
v -0.4 1.4 -0.4
v -0.3 1.4 -0.4
v -0.5 1.2 -0.2
v -0.4 1.2 -0.2
v -0.5 1.2 -0.3
v -0.4 1.2 -0.3
v -0.3 1.2 -0.3
v -0.4 1.2 -0.4
v -0.3 1.2 -0.4
v -0.7 1.8 -0.2
v -0.4 1.8 -0.2
v -0.6 1.8 -0.3
v -0.4 1.8 -0.3
v -0.3 1.8 -0.3
v -0.7 1.8 -0.6
v -0.6 1.8 -0.6
v -0.4 1.8 -0.6
v -0.3 1.8 -0.6
v -0.6 1.8 -0.7
v -0.4 1.8 -0.7

# faces
f 4/2/1 2/2/1 1/2/1
f 5/2/1 4/2/1 3/2/1
f 6/2/1 2/2/1 4/2/1
f 6/2/1 4/2/1 5/2/1
f 11/2/1 8/2/1 7/2/1
f 12/2/1 8/2/1 11/2/1
f 13/2/1 10/2/1 9/2/1
f 14/2/1 10/2/1 13/2/1
f 15/2/2 16/2/2 17/2/2
f 17/2/2 16/2/2 18/2/2
f 19/2/2 20/2/2 23/2/2
f 23/2/2 20/2/2 24/2/2
f 24/1/2 25/1/2 27/1/2
f 27/1/2 25/1/2 28/1/2
f 26/2/2 27/2/2 28/2/2
f 28/1/2 25/1/2 29/1/2
f 26/2/2 28/2/2 30/2/2
f 30/2/2 28/2/2 31/2/2
f 21/2/2 22/2/2 32/2/2
f 32/2/2 22/2/2 33/2/2
f 34/2/2 35/2/2 36/2/2
f 36/2/2 35/2/2 37/2/2
f 37/2/2 35/2/2 39/2/2
f 38/2/2 39/2/2 40/2/2
f 39/2/2 35/2/2 41/2/2
f 40/2/2 39/2/2 41/2/2
f 45/2/3 43/2/3 42/2/3
f 46/2/3 45/2/3 44/2/3
f 47/2/3 43/2/3 45/2/3
f 47/2/3 45/2/3 46/2/3
f 48/2/3 46/2/3 44/2/3
f 49/2/3 46/2/3 48/2/3
f 50/2/3 43/2/3 47/2/3
f 51/2/3 43/2/3 50/2/3
f 54/2/3 53/2/3 52/2/3
f 55/2/3 53/2/3 54/2/3
f 59/1/3 57/1/3 56/1/3
f 60/1/3 57/1/3 59/1/3
f 63/2/3 59/2/3 58/2/3
f 64/2/3 59/2/3 63/2/3
f 65/2/3 62/2/3 61/2/3
f 66/2/3 62/2/3 65/2/3
f 69/2/3 68/2/3 67/2/3
f 70/2/3 68/2/3 69/2/3
f 71/2/4 72/2/4 73/2/4
f 73/2/4 72/2/4 74/2/4
f 75/2/4 76/2/4 77/2/4
f 77/2/4 76/2/4 78/2/4
f 79/2/4 80/2/4 81/2/4
f 81/2/4 80/2/4 82/2/4
f 86/2/5 84/2/5 83/2/5
f 87/2/5 84/2/5 86/2/5
f 89/2/5 86/2/5 85/2/5
f 90/1/5 87/1/5 86/1/5
f 90/2/5 86/2/5 89/2/5
f 91/2/5 88/2/5 87/2/5
f 91/1/5 87/1/5 90/1/5
f 92/2/5 88/2/5 91/2/5
f 93/2/5 91/2/5 90/2/5
f 94/2/5 91/2/5 93/2/5
f 99/2/5 96/2/5 95/2/5
f 100/2/5 96/2/5 99/2/5
f 101/2/5 98/2/5 97/2/5
f 102/2/5 98/2/5 101/2/5
f 105/2/5 104/2/5 103/2/5
f 106/2/5 104/2/5 105/2/5
f 107/2/6 108/2/6 109/2/6
f 109/2/6 108/2/6 110/2/6
f 110/2/6 111/2/6 112/2/6
f 112/2/6 111/2/6 113/2/6
f 114/2/6 115/2/6 116/2/6
f 116/2/6 115/2/6 117/2/6
f 114/2/6 116/2/6 119/2/6
f 116/1/6 117/1/6 120/1/6
f 119/2/6 116/2/6 120/2/6
f 117/2/6 118/2/6 121/2/6
f 120/1/6 117/1/6 121/1/6
f 121/2/6 118/2/6 122/2/6
f 120/2/6 121/2/6 123/2/6
f 123/2/6 121/2/6 124/2/6
